<svg width="2265" height="368" viewBox="0 0 2265 368" fill="none" xmlns="http://www.w3.org/2000/svg">
<path d="M263.942 8.29438C191.038 8.25663 114.972 24.6751 38.1974 45.9719C28.4485 47.9346 18.9355 54.3133 13.9053 62.2017C9.28094 69.6371 7.60106 77.1009 6.15713 84.9233C-1.2985 126.705 -0.392497 167.733 1.15525 213.195C1.495 223.603 3.04275 235.935 7.90307 243.437C12.9804 251.014 21.6818 255.826 32.0725 257.402C45.3473 259.349 58.6638 261.001 72.012 262.356L69.0675 344.429C68.6145 350.959 71.8044 356.385 75.7681 359.508C79.3166 362.207 83.2709 363.405 87.3291 363.707C95.4453 364.32 104.968 360.848 109.696 351.846C130.411 311.989 143.407 294.391 169.313 267.914C236.866 269.574 295.841 265.819 362.612 260.884C386.215 260.271 402.419 240.974 406.704 225.565C419.51 185.633 421.502 136.34 422.861 86.5085C423.436 66.7592 416.585 47.3684 404.457 37.121C392.925 27.7701 378.957 24.3826 366.16 20.9102C330.609 12.8614 295.048 8.53971 263.942 8.29438ZM361.054 39.5272C373.87 43.009 385.167 46.3588 392.292 52.143C404.184 64.7777 403.787 73.185 403.617 86.8199C402.277 135.151 399.956 182.056 389.046 217.601C384.346 230.859 376.154 240.295 360.677 241.72C292.651 246.749 233.629 250.637 165.255 248.693C163.923 248.65 162.597 248.881 161.359 249.371C160.12 249.861 158.995 250.6 158.054 251.542C129.326 280.548 114.632 300.703 92.7368 342.844C92.2271 343.807 91.1229 344.392 89.7639 344.495C88.8485 344.448 88.4804 343.741 88.4238 343.099L91.3872 254.1C91.5665 249.297 87.6028 244.711 82.8274 244.192C66.8602 242.667 50.9366 240.716 35.0736 238.342C28.222 237.294 25.6928 235.416 23.8147 232.623C20.5493 224.839 20.6248 220.026 20.37 212.544C18.8411 167.487 18.0861 128.111 25.0038 88.9336C25.6456 83.1399 27.8162 77.2142 30.1189 72.2603C33.9317 66.2968 39.7735 65.4193 45.6342 63.7963C120.719 43.0657 194.18 27.5625 263.338 27.5153C297.238 28.742 332.836 32.1389 361.054 39.5272V39.5272ZM101.721 115.864C91.3778 128.253 92.4064 145.077 100.4 156.344C104.571 162.241 111.083 166.987 119.011 168.063C129.307 168.912 135.838 164.742 142.888 159.948C155.657 148.852 156.95 129.489 147.238 115.505C142.293 108.381 134.384 104.106 126.306 103.805C115.245 103.918 107.733 108.853 101.721 115.854V115.864ZM213.612 105.748C203.307 106.079 194.973 113.212 189.886 120.912C184.063 129.716 180.666 140.737 185.375 151.541C194.435 172.328 225.739 172.073 238.225 150.946C243.982 141.208 242.51 130.14 238.225 122.11C233.96 114.09 227.504 107.551 218.114 106.05C216.627 105.806 215.119 105.705 213.612 105.748V105.748ZM304.448 107.702C301.239 107.626 297.936 107.928 294.841 108.749C282.459 112.052 271.917 124.828 273.512 141.18C274.324 149.408 278.108 157.429 284.931 162.958C291.755 168.478 301.664 170.95 312.111 168.808C324.116 166.355 331.553 156.683 334.035 147.342C336.517 138 335.894 128.479 330.128 120.761C327.127 116.772 323.255 113.522 318.806 111.258C314.357 108.995 309.449 107.778 304.458 107.702H304.448ZM125.466 123.016C127.778 123.035 129.6 123.771 131.478 126.47C135.677 132.527 134.507 141.709 130.27 145.389C126.051 149.069 123.418 149.389 121.568 149.144C119.719 148.889 117.841 147.615 116.161 145.238C112.952 140.708 112.008 133.386 116.227 128.159C118.473 125.177 122.597 123.318 125.475 123.016H125.466ZM214.962 125.12C215.32 125.177 219.341 127.508 221.266 131.121C223.191 134.735 223.55 138.095 221.719 141.18C216.274 150.39 204.694 147.898 202.938 143.888C202.278 142.36 202.778 136.217 205.958 131.433C209.12 126.63 213.103 124.828 214.962 125.111V125.12ZM314.66 132.178C315.245 132.961 316.67 138.217 315.566 142.388C314.452 146.559 312.64 149.135 308.204 150.04C302.523 151.21 299.333 150.04 296.945 148.087C294.548 146.153 292.934 142.879 292.585 139.378C291.736 130.697 294.85 128.687 299.796 127.366C305.552 125.951 312.064 128.423 314.66 132.178V132.178Z" fill="#FF52C1"/>
<path d="M543.705 47.1418C543.856 44.6885 544.753 42.4805 546.414 40.5273C547.222 39.5697 548.238 38.8087 549.384 38.3019C550.53 37.7951 551.777 37.5558 553.029 37.6021H617.45C619.62 37.6021 621.857 38.508 624.169 40.3102C625.253 41.088 626.134 42.1143 626.738 43.3031C627.342 44.4919 627.652 45.8083 627.642 47.1418V149.927H735.428V47.1418C735.428 44.5375 736.334 42.3012 738.136 40.4235C739.948 38.5363 742.289 37.5927 745.186 37.5927H808.738C811.626 37.5927 814.156 38.3193 816.326 39.7629C818.497 41.2161 819.582 43.5279 819.582 46.7078V350.072C819.582 353.252 818.638 355.639 816.751 357.224C814.882 358.819 812.419 359.612 809.39 359.612H745.186C742.298 359.612 739.948 358.819 738.136 357.224C736.334 355.639 735.428 353.261 735.428 350.072V226.905H627.642V350.072C627.642 353.11 626.661 355.45 624.717 357.121C622.763 358.781 620.12 359.612 616.789 359.612H553.029C546.961 359.612 543.856 356.79 543.705 351.157V47.1418ZM1137.09 355.932C1135.21 357.517 1133.22 358.526 1131.12 358.961C1129.17 359.382 1127.17 359.604 1125.17 359.621H1092.42C1089.82 359.621 1087.57 359.149 1085.69 358.206C1083.8 357.262 1082.22 355.998 1080.92 354.412C1079.58 352.766 1078.49 350.939 1077.67 348.987C1076.8 346.947 1076.07 344.847 1075.5 342.702L1068.78 314.942C1066.61 319.424 1063.47 324.52 1059.34 330.228C1054.88 336.287 1049.59 341.686 1043.62 346.269C1037.26 351.27 1029.66 355.46 1020.85 358.857C1012.02 362.254 1001.91 363.952 990.476 363.952C973.998 363.952 959.031 360.772 945.582 354.412C932.416 348.262 920.701 339.392 911.211 328.388C901.745 317.405 894.403 304.572 889.203 289.89C883.993 275.226 881.388 259.572 881.388 242.956V100.917C881.388 95.4253 882.587 91.2735 884.975 88.4522C887.353 85.6308 891.147 84.2249 896.356 84.2249H946.45C952.679 84.2249 956.935 85.2628 959.248 87.3671C961.56 89.4618 962.721 93.5476 962.721 99.6149V240.776C962.721 247.004 964.136 252.892 966.949 258.459C969.77 264.026 973.489 268.933 978.123 273.198C982.747 277.463 987.985 280.831 993.846 283.285C999.697 285.738 1005.66 286.965 1011.74 286.965C1016.94 286.965 1022.33 285.738 1027.9 283.285C1033.5 280.8 1038.69 277.471 1043.29 273.415C1047.99 269.301 1051.86 264.451 1054.9 258.883C1057.94 253.316 1059.45 247.428 1059.45 241.219V100.266C1059.45 97.8126 1059.92 95.3593 1060.86 92.8965C1061.8 90.4432 1063.21 88.556 1065.09 87.2538C1066.97 86.1026 1068.74 85.31 1070.4 84.876C1072.06 84.4419 1073.99 84.2155 1076.15 84.2155H1125.17C1131.38 84.2155 1135.86 85.7441 1138.61 88.773C1141.35 91.8114 1142.73 95.8594 1142.73 100.917V343.571C1142.73 346.307 1142.12 348.845 1140.89 351.157C1139.66 353.469 1137.97 355.281 1135.8 356.573L1137.09 355.932V355.932ZM1388.89 326.001C1384.98 329.907 1380.68 334.097 1375.99 338.579C1371.29 343.061 1366.12 347.26 1360.48 351.157C1354.81 355.079 1348.7 358.319 1342.27 360.81C1335.55 363.378 1328.41 364.665 1321.22 364.603C1301.56 364.603 1283.45 360.923 1266.89 353.544C1250.75 346.461 1236.21 336.169 1224.17 323.293C1212.24 310.498 1202.91 295.429 1196.2 278.076C1189.47 260.733 1186.11 242.087 1186.11 222.131C1186.11 202.032 1189.47 183.349 1196.2 166.081C1202.91 148.814 1212.24 133.773 1224.17 120.978C1236.2 108.114 1250.74 97.8564 1266.89 90.8395C1283.45 83.5361 1301.56 79.8844 1321.22 79.8844C1329.18 79.8844 1336.45 81.045 1343.02 83.3568C1349.37 85.5555 1355.42 88.5417 1361.02 92.2454C1366.45 95.8594 1371.43 99.9451 1375.99 104.493C1380.54 109.051 1384.84 113.495 1388.89 117.836V18.7303C1388.89 14.1067 1390.31 10.2097 1393.12 7.02981C1395.94 3.84048 1400.17 2.25525 1405.81 2.25525H1454.6C1456.49 2.25525 1458.47 2.65156 1460.57 3.44417C1462.66 4.24622 1464.58 5.35966 1466.32 6.81279C1468.05 8.25648 1469.46 9.99269 1470.54 12.012C1471.63 14.0407 1472.18 16.277 1472.18 18.7303V342.92C1472.18 354.054 1466.32 359.621 1454.6 359.621H1412.1C1409.21 359.621 1406.96 359.244 1405.38 358.526C1403.8 357.82 1402.42 356.742 1401.36 355.384C1400.15 353.793 1399.16 352.044 1398.43 350.185C1397.41 347.737 1396.33 345.314 1395.18 342.92L1388.89 326.001V326.001ZM1264.18 222.131C1264.11 231.249 1265.61 240.312 1268.63 248.919C1271.59 257.223 1275.82 264.422 1281.32 270.49C1286.88 276.605 1293.63 281.512 1301.16 284.908C1308.9 288.455 1317.47 290.22 1326.87 290.22C1336.12 290.22 1344.83 288.559 1353 285.238C1360.94 282.059 1368.19 277.382 1374.36 271.461C1380.49 265.533 1385.45 258.512 1389 250.759C1392.68 242.805 1394.75 234.275 1395.18 225.169V222.131C1395.22 213.056 1393.45 204.066 1389.98 195.682C1386.61 187.462 1381.72 179.956 1375.55 173.564C1369.37 167.179 1362.01 162.06 1353.87 158.495C1345.36 154.768 1336.16 152.884 1326.87 152.965C1317.47 152.965 1308.9 154.805 1301.16 158.495C1293.42 162.175 1286.81 167.204 1281.32 173.564C1275.74 180.074 1271.43 187.578 1268.63 195.682C1265.65 204.18 1264.15 213.126 1264.19 222.131H1264.18ZM1723.98 326.001C1720.07 329.907 1715.77 334.097 1711.07 338.579C1706.37 343.061 1701.2 347.26 1695.56 351.157C1689.89 355.079 1683.78 358.319 1677.35 360.81C1670.63 363.378 1663.49 364.665 1656.3 364.603C1636.64 364.603 1618.53 360.923 1601.98 353.544C1585.83 346.462 1571.29 336.17 1559.25 323.293C1547.33 310.498 1537.99 295.429 1531.27 278.076C1524.55 260.733 1521.18 242.087 1521.18 222.131C1521.18 202.032 1524.55 183.349 1531.27 166.081C1537.99 148.814 1547.32 133.773 1559.25 120.978C1571.28 108.113 1585.82 97.8552 1601.98 90.8395C1618.53 83.5361 1636.64 79.8844 1656.3 79.8844C1664.26 79.8844 1671.52 81.045 1678.1 83.3568C1684.45 85.5555 1690.5 88.5417 1696.1 92.2454C1701.53 95.8594 1706.51 99.9451 1711.07 104.493C1715.63 109.051 1719.92 113.495 1723.97 117.836V18.7303C1723.97 14.1067 1725.38 10.2097 1728.2 7.02981C1731.03 3.84048 1735.25 2.25525 1740.89 2.25525H1789.68C1791.57 2.25525 1793.55 2.65156 1795.65 3.44417C1797.75 4.24622 1799.67 5.35966 1801.4 6.81279C1803.13 8.25648 1804.55 9.99269 1805.63 12.012C1806.71 14.0407 1807.25 16.277 1807.25 18.7303V342.92C1807.25 354.054 1801.4 359.621 1789.68 359.621H1747.18C1744.29 359.621 1742.04 359.244 1740.46 358.526C1738.88 357.819 1737.51 356.74 1736.44 355.384C1735.24 353.793 1734.25 352.044 1733.52 350.185C1732.49 347.737 1731.41 345.314 1730.26 342.92L1723.97 326.001H1723.98ZM1599.26 222.131C1599.19 231.249 1600.69 240.312 1603.71 248.919C1606.68 257.223 1610.91 264.422 1616.4 270.49C1621.96 276.606 1628.71 281.513 1636.25 284.908C1643.99 288.455 1652.55 290.22 1661.95 290.22C1671.19 290.22 1679.9 288.559 1688.08 285.238C1696.02 282.06 1703.27 277.383 1709.44 271.461C1715.57 265.531 1720.53 258.51 1724.07 250.759C1727.76 242.805 1729.83 234.275 1730.26 225.169V222.131C1730.3 213.056 1728.53 204.066 1725.05 195.682C1721.69 187.462 1716.8 179.956 1710.63 173.564C1704.45 167.179 1697.09 162.06 1688.95 158.495C1680.44 154.768 1671.23 152.884 1661.95 152.965C1652.55 152.965 1643.98 154.805 1636.25 158.495C1628.51 162.175 1621.89 167.204 1616.4 173.564C1610.82 180.074 1606.51 187.578 1603.71 195.682C1600.73 204.18 1599.23 213.126 1599.27 222.131H1599.26ZM1864.96 18.9474C1864.96 14.3238 1866.11 10.4267 1868.42 7.24684C1870.74 4.05751 1874.71 2.47227 1880.35 2.47227H1933.48C1934.93 2.47227 1936.45 2.86858 1938.04 3.6612C1939.71 4.51597 1941.21 5.65607 1942.48 7.02981C1943.86 8.47351 1945.01 10.2097 1945.96 12.229C1946.9 14.2577 1947.37 16.494 1947.37 18.9474V342.92C1947.37 348.411 1945.82 352.563 1942.7 355.384C1939.6 358.206 1935.59 359.612 1930.67 359.612H1880.35C1874.71 359.612 1870.74 358.196 1868.42 355.384C1866.11 352.563 1864.96 348.402 1864.96 342.92V18.9474ZM2230.19 326.652C2217.61 338.267 2203.07 347.554 2187.25 354.082C2171.22 360.685 2154.04 364.04 2136.71 363.952C2116.89 363.952 2098.17 360.338 2080.54 353.101C2063.3 346.134 2047.54 335.944 2034.12 323.076C2020.75 310.184 2010 294.83 2002.46 277.859C1994.65 260.516 1990.75 241.653 1990.75 221.262C1990.75 208.543 1992.3 196.22 1995.41 184.293C1998.42 172.623 2002.86 161.371 2008.64 150.795C2014.35 140.385 2021.35 130.733 2029.46 122.063C2037.55 113.378 2046.78 105.827 2056.9 99.6149C2067.19 93.3225 2078.27 88.4354 2089.86 85.0836C2102.05 81.5691 2114.69 79.8182 2127.37 79.8844C2139.38 79.8844 2151.02 81.4791 2162.29 84.659C2173.57 87.8388 2184.17 92.3209 2194.07 98.0957C2203.98 103.88 2213.04 110.825 2221.29 118.921C2229.42 126.882 2236.56 135.801 2242.54 145.483C2248.47 155.094 2253.1 165.447 2256.32 176.272C2259.57 187.189 2261.2 198.428 2261.2 209.987C2261.2 217.507 2261.08 223.65 2260.87 228.424C2260.65 233.189 2259.53 236.992 2257.51 239.804C2255.48 242.635 2252.13 244.579 2247.42 245.654C2242.72 246.749 2235.81 247.287 2226.71 247.287H2070.56C2072 256.534 2074.93 264.271 2079.34 270.499C2083.42 276.394 2088.61 281.435 2094.63 285.342C2100.41 289.031 2106.56 291.664 2113.07 293.268C2119.09 294.794 2125.28 295.593 2131.5 295.646C2136.71 295.646 2142.05 295.098 2147.54 294.023C2152.96 292.96 2158.29 291.51 2163.49 289.682C2168.36 287.991 2173.07 285.885 2177.58 283.388C2181.85 281.011 2185.28 278.51 2187.89 275.915C2190.2 274.028 2192.19 272.622 2193.85 271.678C2195.51 270.735 2197.29 270.273 2199.17 270.273C2201.05 270.273 2202.96 270.933 2204.92 272.226C2207.3 273.888 2209.51 275.774 2211.53 277.859L2234.52 303.883C2236.1 305.77 2237.12 307.469 2237.56 308.979C2237.99 310.498 2238.21 312.055 2238.21 313.64C2238.21 316.537 2237.41 319.028 2235.82 321.123C2234.22 323.23 2232.32 325.093 2230.18 326.652H2230.19ZM2125.86 146.021C2120.22 146.021 2114.77 147.143 2109.49 149.38C2104.14 151.665 2099.13 154.696 2094.63 158.382C2090 162.137 2085.85 166.402 2082.16 171.177C2078.64 175.678 2075.62 180.551 2073.16 185.708H2183.98C2181.07 180.271 2177.78 175.052 2174.12 170.092C2170.64 165.385 2166.55 161.156 2161.97 157.514C2157.28 153.828 2152 150.969 2146.35 149.059C2140.5 147.03 2133.67 146.021 2125.86 146.021Z" fill="white"/>
</svg>
