<svg width="2262" height="363" viewBox="0 0 2262 363" fill="none" xmlns="http://www.w3.org/2000/svg">
<path d="M263.851 6.03913C190.946 6.00138 114.88 22.4198 38.1056 43.7167C28.3567 45.6793 18.8437 52.058 13.8135 59.9464C9.18914 67.3819 7.50927 74.8457 6.06533 82.6681C-1.39029 124.45 -0.484294 165.477 1.06346 210.94C1.40321 221.347 2.95096 233.68 7.81127 241.182C12.8886 248.759 21.59 253.571 31.9807 255.147C45.2555 257.094 58.572 258.745 71.9202 260.101L68.9757 342.174C68.5227 348.704 71.7126 354.129 75.6763 357.253C79.2248 359.951 83.1792 361.15 87.2373 361.452C95.3535 362.065 104.876 358.593 109.604 349.591C130.319 309.733 143.315 292.136 169.221 265.658C236.774 267.319 295.749 263.564 362.52 258.629C386.123 258.015 402.327 238.719 406.612 223.31C419.418 183.377 421.41 134.084 422.769 84.2533C423.344 64.504 416.493 45.1132 404.366 34.8658C392.833 25.5148 378.865 22.1273 366.068 18.6549C330.517 10.6061 294.957 6.28446 263.851 6.03913ZM360.963 37.272C373.779 40.7538 385.075 44.1035 392.201 49.8877C404.092 62.5224 403.695 70.9298 403.526 84.5647C402.186 132.895 399.864 179.801 388.954 215.346C384.254 228.604 376.062 238.04 360.585 239.464C292.56 244.494 233.537 248.381 165.163 246.438C163.831 246.395 162.505 246.626 161.267 247.116C160.028 247.606 158.903 248.345 157.962 249.287C129.234 278.293 114.54 298.448 92.645 340.589C92.1353 341.551 91.0311 342.136 89.6721 342.24C88.7567 342.193 88.3886 341.485 88.332 340.844L91.2954 251.844C91.4747 247.041 87.511 242.456 82.7356 241.937C66.7684 240.412 50.8448 238.461 34.9818 236.086C28.1302 235.039 25.601 233.161 23.7229 230.368C20.4575 222.584 20.533 217.771 20.2782 210.289C18.7493 165.232 17.9943 125.856 24.912 86.6783C25.5538 80.8847 27.7244 74.9589 30.0271 70.0051C33.8399 64.0416 39.6817 63.1641 45.5424 61.5411C120.627 40.8104 194.089 25.3072 263.247 25.2601C297.146 26.4867 332.744 29.8836 360.963 37.272ZM101.629 113.608C91.286 125.998 92.3146 142.822 100.308 154.088C104.48 159.986 110.991 164.732 118.919 165.808C129.215 166.657 135.746 162.486 142.796 157.693C155.565 146.596 156.858 127.234 147.147 113.25C142.201 106.126 134.293 101.851 126.214 101.549C115.153 101.663 107.641 106.597 101.629 113.599V113.608ZM213.52 103.493C203.215 103.823 194.881 110.957 189.795 118.657C183.972 127.46 180.574 138.481 185.283 149.285C194.343 170.073 225.648 169.818 238.133 148.691C243.89 138.953 242.418 127.885 238.133 119.855C233.868 111.834 227.412 105.295 218.022 103.795C216.535 103.55 215.027 103.449 213.52 103.493ZM304.356 105.446C301.148 105.371 297.845 105.673 294.749 106.494C282.367 109.796 271.825 122.572 273.42 138.925C274.232 147.153 278.016 155.173 284.84 160.703C291.663 166.223 301.572 168.695 312.02 166.553C324.024 164.1 331.461 154.428 333.943 145.087C336.425 135.745 335.802 126.224 330.036 118.506C327.036 114.517 323.163 111.266 318.714 109.003C314.265 106.739 309.357 105.523 304.366 105.446H304.356ZM125.374 120.761C127.686 120.78 129.508 121.516 131.386 124.214C135.586 130.272 134.415 139.453 130.178 143.133C125.959 146.813 123.326 147.134 121.477 146.889C119.627 146.634 117.749 145.36 116.069 142.982C112.86 138.453 111.916 131.131 116.135 125.903C118.381 122.922 122.505 121.063 125.384 120.761H125.374ZM214.87 122.865C215.229 122.922 219.249 125.252 221.174 128.866C223.1 132.48 223.458 135.839 221.627 138.925C216.182 148.134 204.602 145.643 202.847 141.633C202.186 140.104 202.686 133.962 205.867 129.178C209.028 124.375 213.011 122.572 214.87 122.856V122.865ZM314.568 129.923C315.153 130.706 316.578 135.962 315.474 140.133C314.36 144.303 312.548 146.879 308.113 147.785C302.431 148.955 299.241 147.785 296.854 145.832C294.456 143.898 292.843 140.623 292.493 137.123C291.644 128.442 294.758 126.432 299.704 125.111C305.461 123.695 311.972 126.168 314.568 129.923Z" fill="white"/>
<path d="M543.613 44.8866C543.764 42.4332 544.661 40.2252 546.322 38.272C547.13 37.3144 548.146 36.5534 549.292 36.0466C550.439 35.5398 551.685 35.3005 552.938 35.3469H617.358C619.529 35.3469 621.765 36.2527 624.077 38.055C625.161 38.8327 626.042 39.8591 626.646 41.0479C627.25 42.2366 627.561 43.5531 627.55 44.8866V147.672H735.336V44.8866C735.336 42.2823 736.242 40.046 738.045 38.1682C739.857 36.281 742.197 35.3374 745.094 35.3374H808.647C811.534 35.3374 814.064 36.064 816.234 37.5077C818.405 38.9608 819.49 41.2726 819.49 44.4525V347.817C819.49 350.997 818.547 353.384 816.659 354.969C814.79 356.564 812.327 357.356 809.298 357.356H745.094C742.207 357.356 739.857 356.564 738.045 354.969C736.242 353.384 735.336 351.006 735.336 347.817V224.65H627.55V347.817C627.55 350.855 626.569 353.195 624.625 354.865C622.671 356.526 620.029 357.356 616.697 357.356H552.938C546.869 357.356 543.764 354.535 543.613 348.902V44.8866ZM1137 353.676C1135.12 355.262 1133.13 356.271 1131.03 356.705C1129.07 357.127 1127.08 357.348 1125.08 357.366H1092.33C1089.72 357.366 1087.48 356.894 1085.6 355.95C1083.71 355.007 1082.13 353.742 1080.82 352.157C1079.49 350.51 1078.4 348.684 1077.58 346.732C1076.7 344.692 1075.98 342.592 1075.41 340.447L1068.69 312.687C1066.52 317.169 1063.37 322.264 1059.25 327.973C1054.79 334.031 1049.5 339.431 1043.53 344.014C1037.17 349.015 1029.57 353.205 1020.75 356.601C1011.93 359.998 1001.81 361.697 990.385 361.697C973.907 361.697 958.939 358.517 945.49 352.157C932.324 346.006 920.61 337.137 911.119 326.133C901.653 315.15 894.311 302.317 889.111 287.634C883.901 272.971 881.296 257.317 881.296 240.7V98.6618C881.296 93.1701 882.495 89.0183 884.883 86.1969C887.261 83.3756 891.055 81.9696 896.264 81.9696H946.359C952.587 81.9696 956.844 83.0076 959.156 85.1118C961.468 87.2066 962.629 91.2923 962.629 97.3596V238.521C962.629 244.748 964.045 250.636 966.857 256.204C969.679 261.771 973.397 266.677 978.031 270.942C982.655 275.207 987.893 278.576 993.754 281.029C999.605 283.483 1005.57 284.709 1011.65 284.709C1016.85 284.709 1022.24 283.483 1027.8 281.029C1033.41 278.545 1038.6 275.216 1043.2 271.159C1047.9 267.045 1051.77 262.195 1054.8 256.628C1057.84 251.061 1059.35 245.173 1059.35 238.964V98.0107C1059.35 95.5574 1059.83 93.104 1060.77 90.6412C1061.71 88.1879 1063.12 86.3007 1065 84.9986C1066.88 83.8474 1068.65 83.0548 1070.31 82.6207C1071.97 82.1867 1073.9 81.9602 1076.06 81.9602H1125.08C1131.29 81.9602 1135.77 83.4888 1138.52 86.5178C1141.26 89.5561 1142.64 93.6041 1142.64 98.6618V341.315C1142.64 344.052 1142.03 346.59 1140.8 348.902C1139.57 351.214 1137.87 353.025 1135.7 354.318L1137 353.676ZM1388.8 323.746C1384.89 327.652 1380.59 331.842 1375.9 336.324C1371.2 340.806 1366.03 345.005 1360.39 348.902C1354.72 352.824 1348.61 356.064 1342.18 358.555C1335.46 361.123 1328.32 362.409 1321.13 362.348C1301.47 362.348 1283.36 358.668 1266.8 351.289C1250.65 344.206 1236.12 333.913 1224.08 321.038C1212.15 308.243 1202.82 293.173 1196.1 275.821C1189.37 258.478 1186.01 239.832 1186.01 219.875C1186.01 199.777 1189.37 181.094 1196.1 163.826C1202.82 146.558 1212.15 131.518 1224.08 118.722C1236.1 105.859 1250.65 95.6011 1266.8 88.5842C1283.36 81.2808 1301.47 77.6291 1321.13 77.6291C1329.09 77.6291 1336.35 78.7897 1342.93 81.1015C1349.28 83.3002 1355.33 86.2864 1360.93 89.9902C1366.36 93.6041 1371.34 97.6899 1375.9 102.238C1380.45 106.796 1384.75 111.24 1388.8 115.58V16.4751C1388.8 11.8515 1390.21 7.95446 1393.03 4.77457C1395.85 1.58523 1400.08 0 1405.72 0H1454.51C1456.4 0 1458.38 0.396308 1460.48 1.18892C1462.57 1.99097 1464.49 3.10441 1466.23 4.55754C1467.96 6.00123 1469.37 7.73744 1470.45 9.75672C1471.54 11.7854 1472.08 14.0217 1472.08 16.4751V340.664C1472.08 351.799 1466.23 357.366 1454.51 357.366H1412C1409.12 357.366 1406.87 356.988 1405.29 356.271C1403.71 355.565 1402.33 354.486 1401.27 353.129C1400.06 351.538 1399.07 349.788 1398.34 347.93C1397.32 345.482 1396.23 343.059 1395.09 340.664L1388.8 323.746ZM1264.09 219.875C1264.02 228.994 1265.52 238.057 1268.54 246.664C1271.5 254.967 1275.73 262.167 1281.23 268.234C1286.78 274.349 1293.54 279.257 1301.07 282.652C1308.81 286.2 1317.38 287.965 1326.77 287.965C1336.02 287.965 1344.73 286.304 1352.91 282.983C1360.84 279.804 1368.1 275.126 1374.26 269.206C1380.39 263.277 1385.36 256.256 1388.91 248.504C1392.59 240.549 1394.66 232.019 1395.09 222.914V219.875C1395.13 210.801 1393.35 201.811 1389.88 193.426C1386.52 185.207 1381.63 177.701 1375.46 171.309C1369.28 164.924 1361.92 159.805 1353.78 156.24C1345.27 152.513 1336.06 150.628 1326.77 150.71C1317.38 150.71 1308.81 152.55 1301.07 156.24C1293.33 159.92 1286.72 164.949 1281.23 171.309C1275.65 177.819 1271.34 185.322 1268.54 193.426C1265.56 201.925 1264.06 210.87 1264.1 219.875H1264.09ZM1723.89 323.746C1719.98 327.652 1715.68 331.842 1710.98 336.324C1706.28 340.806 1701.1 345.005 1695.47 348.902C1689.8 352.824 1683.68 356.064 1677.26 358.555C1670.54 361.123 1663.4 362.409 1656.21 362.348C1636.55 362.348 1618.44 358.668 1601.89 351.289C1585.74 344.207 1571.2 333.914 1559.15 321.038C1547.23 308.243 1537.9 293.173 1531.18 275.821C1524.46 258.478 1521.09 239.832 1521.09 219.875C1521.09 199.777 1524.46 181.094 1531.18 163.826C1537.9 146.558 1547.23 131.518 1559.15 118.722C1571.19 105.858 1585.73 95.6 1601.89 88.5842C1618.44 81.2808 1636.55 77.6291 1656.21 77.6291C1664.17 77.6291 1671.43 78.7897 1678.01 81.1015C1684.36 83.3002 1690.4 86.2864 1696.01 89.9902C1701.43 93.6041 1706.42 97.6899 1710.98 102.238C1715.53 106.796 1719.83 111.24 1723.88 115.58V16.4751C1723.88 11.8515 1725.29 7.95446 1728.1 4.77457C1730.94 1.58523 1735.15 0 1740.8 0H1789.59C1791.48 0 1793.46 0.396308 1795.55 1.18892C1797.66 1.99097 1799.57 3.10441 1801.31 4.55754C1803.04 6.00123 1804.45 7.73744 1805.54 9.75672C1806.62 11.7854 1807.16 14.0217 1807.16 16.4751V340.664C1807.16 351.799 1801.31 357.366 1789.59 357.366H1747.08C1744.2 357.366 1741.95 356.988 1740.36 356.271C1738.79 355.563 1737.42 354.485 1736.35 353.129C1735.14 351.538 1734.16 349.788 1733.43 347.93C1732.4 345.482 1731.32 343.059 1730.17 340.664L1723.88 323.746H1723.89ZM1599.17 219.875C1599.1 228.994 1600.6 238.057 1603.61 246.664C1606.59 254.967 1610.82 262.167 1616.31 268.234C1621.86 274.35 1628.62 279.258 1636.16 282.652C1643.89 286.2 1652.45 287.965 1661.85 287.965C1671.1 287.965 1679.81 286.304 1687.99 282.983C1695.93 279.805 1703.18 275.127 1709.35 269.206C1715.47 263.276 1720.44 256.255 1723.98 248.504C1727.67 240.549 1729.74 232.019 1730.17 222.914V219.875C1730.2 210.801 1728.43 201.811 1724.96 193.426C1721.6 185.207 1716.71 177.701 1710.54 171.309C1704.36 164.924 1696.99 159.805 1688.85 156.24C1680.34 152.513 1671.14 150.628 1661.85 150.71C1652.45 150.71 1643.88 152.55 1636.16 156.24C1628.42 159.92 1621.8 164.949 1616.31 171.309C1610.73 177.819 1606.42 185.322 1603.61 193.426C1600.64 201.925 1599.13 210.87 1599.18 219.875H1599.17ZM1864.86 16.6921C1864.86 12.0685 1866.01 8.17149 1868.33 4.99159C1870.65 1.80226 1874.62 0.217026 1880.26 0.217026H1933.39C1934.84 0.217026 1936.36 0.613334 1937.95 1.40595C1939.61 2.26072 1941.12 3.40082 1942.39 4.77457C1943.77 6.21826 1944.92 7.95446 1945.87 9.97375C1946.81 12.0025 1947.28 14.2388 1947.28 16.6921V340.664C1947.28 346.156 1945.72 350.308 1942.61 353.129C1939.5 355.95 1935.49 357.356 1930.58 357.356H1880.26C1874.62 357.356 1870.65 355.941 1868.33 353.129C1866.01 350.308 1864.86 346.147 1864.86 340.664V16.6921ZM2230.09 324.397C2217.52 336.011 2202.98 345.299 2187.15 351.827C2171.13 358.43 2153.95 361.785 2136.62 361.697C2116.8 361.697 2098.08 358.083 2080.44 350.846C2063.2 343.879 2047.45 333.688 2034.03 320.821C2020.66 307.929 2009.91 292.575 2002.37 275.604C1994.55 258.261 1990.66 239.398 1990.66 219.007C1990.66 206.288 1992.2 193.964 1995.32 182.037C1998.33 170.368 2002.77 159.116 2008.55 148.54C2014.26 138.13 2021.26 128.478 2029.37 119.808C2037.46 111.123 2046.69 103.572 2056.8 97.3596C2067.09 91.0673 2078.18 86.1802 2089.77 82.8283C2101.96 79.3138 2114.59 77.563 2127.28 77.6291C2139.29 77.6291 2150.92 79.2238 2162.2 82.4037C2173.48 85.5836 2184.08 90.0657 2193.98 95.8404C2203.89 101.625 2212.95 108.569 2221.2 116.665C2229.33 124.627 2236.47 133.546 2242.45 143.228C2248.38 152.839 2253.01 163.192 2256.23 174.017C2259.47 184.934 2261.11 196.172 2261.11 207.731C2261.11 215.252 2260.99 221.394 2260.78 226.169C2260.56 230.934 2259.44 234.737 2257.42 237.549C2255.39 240.38 2252.04 242.323 2247.33 243.399C2242.63 244.494 2235.72 245.031 2226.62 245.031H2070.47C2071.91 254.279 2074.84 262.016 2079.25 268.244C2083.33 274.138 2088.52 279.18 2094.53 283.086C2100.32 286.776 2106.46 289.408 2112.98 291.013C2119 292.539 2125.19 293.337 2131.41 293.39C2136.62 293.39 2141.96 292.843 2147.45 291.767C2152.86 290.705 2158.19 289.255 2163.4 287.427C2168.27 285.735 2172.98 283.63 2177.49 281.133C2181.76 278.755 2185.19 276.255 2187.8 273.66C2190.11 271.773 2192.1 270.367 2193.76 269.423C2195.42 268.48 2197.2 268.017 2199.07 268.017C2200.96 268.017 2202.87 268.678 2204.83 269.97C2207.21 271.632 2209.42 273.519 2211.44 275.604L2234.43 301.628C2236.01 303.515 2237.03 305.214 2237.47 306.723C2237.9 308.243 2238.12 309.799 2238.12 311.385C2238.12 314.281 2237.31 316.773 2235.73 318.867C2234.13 320.975 2232.22 322.837 2230.09 324.397H2230.09ZM2125.77 143.765C2120.13 143.765 2114.67 144.888 2109.4 147.125C2104.04 149.41 2099.04 152.441 2094.53 156.126C2089.91 159.882 2085.76 164.147 2082.07 168.921C2078.55 173.423 2075.53 178.296 2073.06 183.453H2183.89C2180.98 178.016 2177.69 172.797 2174.03 167.836C2170.55 163.13 2166.46 158.901 2161.88 155.258C2157.19 151.573 2151.91 148.714 2146.26 146.804C2140.41 144.775 2133.58 143.765 2125.77 143.765Z" fill="white"/>
</svg>
